pose8
version=1
nRows=4
nColumns=213
inDegrees=yes
endheader
time	platform_rx	platform_ry	platform_rz	platform_ty	pelvis_tilt	pelvis_list	pelvis_rotation	pelvis_tx	pelvis_ty	pelvis_tz	hip_flexion_r	hip_adduction_r	hip_rotation_r	knee_angle_r	knee_angle_r_beta	ankle_angle_r	subtalar_angle_r	mtp_angle_r	hip_flexion_l	hip_adduction_l	hip_rotation_l	knee_angle_l	knee_angle_l_beta	ankle_angle_l	subtalar_angle_l	mtp_angle_l	lumbar_extension	lumbar_bending	lumbar_rotation	arm_flex_r	arm_add_r	arm_rot_r	elbow_flex_r	pro_sup_r	wrist_flex_r	wrist_dev_r	arm_flex_l	arm_add_l	arm_rot_l	elbow_flex_l	pro_sup_l	wrist_flex_l	wrist_dev_l	platform_rx_u	platform_ry_u	platform_rz_u	platform_ty_u	pelvis_tilt_u	pelvis_list_u	pelvis_rotation_u	pelvis_tx_u	pelvis_ty_u	pelvis_tz_u	hip_flexion_r_u	hip_adduction_r_u	hip_rotation_r_u	knee_angle_r_u	knee_angle_r_beta_u	ankle_angle_r_u	subtalar_angle_r_u	mtp_angle_r_u	hip_flexion_l_u	hip_adduction_l_u	hip_rotation_l_u	knee_angle_l_u	knee_angle_l_beta_u	ankle_angle_l_u	subtalar_angle_l_u	mtp_angle_l_u	lumbar_extension_u	lumbar_bending_u	lumbar_rotation_u	arm_flex_r_u	arm_add_r_u	arm_rot_r_u	elbow_flex_r_u	pro_sup_r_u	wrist_flex_r_u	wrist_dev_r_u	arm_flex_l_u	arm_add_l_u	arm_rot_l_u	elbow_flex_l_u	pro_sup_l_u	wrist_flex_l_u	wrist_dev_l_u	addbrev_r.activation	addlong_r.activation	addlong_r.fiber_length	addmagDist_r.activation	addmagIsch_r.activation	addmagIsch_r.fiber_length	addmagMid_r.activation	addmagProx_r.activation	bflh_r.activation	bflh_r.fiber_length	bfsh_r.activation	edl_r.activation	edl_r.fiber_length	ehl_r.activation	ehl_r.fiber_length	fdl_r.activation	fdl_r.fiber_length	fhl_r.activation	fhl_r.fiber_length	gaslat_r.activation	gaslat_r.fiber_length	gasmed_r.activation	gasmed_r.fiber_length	glmax1_r.activation	glmax2_r.activation	glmax3_r.activation	glmed1_r.activation	glmed2_r.activation	glmed3_r.activation	glmin1_r.activation	glmin2_r.activation	glmin3_r.activation	glmin3_r.fiber_length	grac_r.activation	iliacus_r.activation	perbrev_r.activation	perbrev_r.fiber_length	perlong_r.activation	perlong_r.fiber_length	piri_r.activation	piri_r.fiber_length	psoas_r.activation	recfem_r.activation	recfem_r.fiber_length	sart_r.activation	semimem_r.activation	semimem_r.fiber_length	semiten_r.activation	semiten_r.fiber_length	soleus_r.activation	soleus_r.fiber_length	tfl_r.activation	tfl_r.fiber_length	tibant_r.activation	tibant_r.fiber_length	tibpost_r.activation	tibpost_r.fiber_length	vasint_r.activation	vasint_r.fiber_length	vaslat_r.activation	vaslat_r.fiber_length	vasmed_r.activation	vasmed_r.fiber_length	addbrev_l.activation	addlong_l.activation	addlong_l.fiber_length	addmagDist_l.activation	addmagIsch_l.activation	addmagIsch_l.fiber_length	addmagMid_l.activation	addmagProx_l.activation	bflh_l.activation	bflh_l.fiber_length	bfsh_l.activation	edl_l.activation	edl_l.fiber_length	ehl_l.activation	ehl_l.fiber_length	fdl_l.activation	fdl_l.fiber_length	fhl_l.activation	fhl_l.fiber_length	gaslat_l.activation	gaslat_l.fiber_length	gasmed_l.activation	gasmed_l.fiber_length	glmax1_l.activation	glmax2_l.activation	glmax3_l.activation	glmed1_l.activation	glmed2_l.activation	glmed3_l.activation	glmin1_l.activation	glmin2_l.activation	glmin3_l.activation	glmin3_l.fiber_length	grac_l.activation	iliacus_l.activation	perbrev_l.activation	perbrev_l.fiber_length	perlong_l.activation	perlong_l.fiber_length	piri_l.activation	piri_l.fiber_length	psoas_l.activation	recfem_l.activation	recfem_l.fiber_length	sart_l.activation	semimem_l.activation	semimem_l.fiber_length	semiten_l.activation	semiten_l.fiber_length	soleus_l.activation	soleus_l.fiber_length	tfl_l.activation	tfl_l.fiber_length	tibant_l.activation	tibant_l.fiber_length	tibpost_l.activation	tibpost_l.fiber_length	vasint_l.activation	vasint_l.fiber_length	vaslat_l.activation	vaslat_l.fiber_length	vasmed_l.activation	vasmed_l.fiber_length
      0.00339024	     20.00000000	      0.00000000	     -0.00000000	      0.25000000	    -10.25535742	     -0.00168556	     -0.00133348	      0.07800256	      0.86707360	      0.00000578	     37.51377384	    -11.10442096	    -10.01114114	     44.68681758	     44.68681758	     15.74761468	     -0.18893887	      0.00000000	     37.51291665	    -11.11465989	    -10.01147212	     44.68684807	     44.68684807	     15.78946817	      0.00000000	     -0.00000000	     -0.07372116	      0.00156535	      0.00132776	     43.01340490	     -0.00065468	     89.90414093	      0.10310035	      0.10047136	     -0.00000000	      0.00000000	     43.01348240	     -0.00096854	     89.90461338	      0.10325898	      0.10050375	     -0.00000000	      0.00000000	      0.00000000	      0.00000000	     -0.00000000	     -0.00000000	     35.75711712	     -0.94142489	     -0.73810380	      0.00195319	      0.04309918	      0.00324907	    -44.63633635	      1.44912235	     -6.57906217	    -24.48799109	    -24.48799109	   -416.00541023	   -107.03033464	      0.00000000	    -45.11025421	     -4.29767893	     -6.77289080	    -24.07169404	    -24.07169404	   -392.58902065	      0.00000000	     -0.00000000	    -43.40471426	      0.86986986	      0.73594952	      7.85511931	     -0.37457383	     -0.25753302	      1.25507076	     -0.25889960	     -0.00000000	      0.00000000	      7.90061978	     -0.56018789	     -0.17283808	      1.34823079	     -0.23987423	     -0.00000000	      0.00000000	      0.01000000	      0.01000000	      0.09899705	      0.01000000	      0.01000000	      0.16671638	      0.01000000	      0.01000000	      0.01000000	      0.10415907	      0.01000000	      0.01000000	      0.05919836	      0.01000000	      0.06747998	      0.01000000	      0.04693387	      0.01000000	      0.05457394	      0.01000000	      0.06703922	      0.01000000	      0.05839205	      0.01000000	      0.01000000	      0.01000000	      0.01000000	      0.01000000	      0.01000000	      0.01000000	      0.01000000	      0.01000000	      0.03952206	      0.01000000	      0.01000000	      0.01000000	      0.04988929	      0.01000000	      0.05611696	      0.01000000	      0.02351999	      0.01000000	      0.01000000	      0.06887137	      0.01000000	      0.01000000	      0.07097411	      0.01000000	      0.21831728	      0.01000000	      0.05640444	      0.01000000	      0.07446994	      0.01000000	      0.05440830	      0.01000000	      0.04106772	      0.01000000	      0.11225462	      0.01000000	      0.11044804	      0.01000000	      0.10920083	      0.01000000	      0.01000000	      0.09900570	      0.01000000	      0.01000000	      0.16672017	      0.01000000	      0.01000000	      0.01000000	      0.10416026	      0.01000000	      0.01000000	      0.05921176	      0.01000000	      0.06746354	      0.01000000	      0.04692576	      0.01000000	      0.05456633	      0.01000000	      0.06704381	      0.01000000	      0.05839965	      0.01000000	      0.01000000	      0.01000000	      0.01000000	      0.01000000	      0.01000000	      0.01000000	      0.01000000	      0.01000000	      0.03951782	      0.01000000	      0.01000000	      0.01000000	      0.04993571	      0.01000000	      0.05614244	      0.01000000	      0.02351820	      0.01000000	      0.01000000	      0.06887040	      0.01000000	      0.01000000	      0.07097500	      0.01000000	      0.21832004	      0.01000000	      0.05641027	      0.01000000	      0.07446702	      0.01000000	      0.05436339	      0.01000000	      0.04105796	      0.01000000	      0.11225445	      0.01000000	      0.11044786	      0.01000000	      0.10920069
      0.00442106	     20.00000000	      0.00000000	     -0.00000000	      0.25000000	    -10.21289958	     -0.00277188	     -0.00218096	      0.07800516	      0.86712459	      0.00000954	     37.46058780	    -11.10273927	    -10.01896235	     44.65745308	     44.65745308	     15.26112569	     -0.31332699	      0.00000000	     37.45918703	    -11.11962533	    -10.01950664	     44.65796928	     44.65796928	     15.33002356	      0.00000000	     -0.00000000	     -0.12521799	      0.00256631	      0.00217364	     43.02269761	     -0.00109723	     89.90383485	      0.10458358	      0.10017335	     -0.00000000	      0.00000000	     43.02282893	     -0.00163060	     89.90440749	      0.10485238	      0.10022824	     -0.00000000	      0.00000000	     -0.00000000	      0.00000000	     -0.00000000	     -0.00000000	     46.61815768	     -1.16118569	     -0.90157177	      0.00314784	      0.05580225	      0.00402879	    -58.58727493	      1.80859310	     -8.59855790	    -32.54498594	    -32.54498594	   -526.55537400	   -133.85760008	      0.00000000	    -59.16490879	     -5.31257193	     -8.81639753	    -32.02042767	    -32.02042767	   -497.62406258	      0.00000000	     -0.00000000	    -56.50020547	      1.06703795	      0.90081740	     10.16815163	     -0.48367125	     -0.33634311	      1.62137353	     -0.31755982	     -0.00000000	      0.00000000	     10.22701548	     -0.72374322	     -0.22676559	      1.74187085	     -0.29294834	     -0.00000000	      0.00000000	      0.01000000	      0.01000000	      0.09901942	      0.01000000	      0.01000000	      0.16667345	      0.01000000	      0.01000000	      0.01000000	      0.10413769	      0.01000000	      0.01000000	      0.05942644	      0.01000000	      0.06776653	      0.01000000	      0.04693056	      0.01000000	      0.05455203	      0.01000000	      0.06684967	      0.01000000	      0.05821732	      0.01000000	      0.01000000	      0.01000000	      0.01000000	      0.01000000	      0.01000000	      0.01000000	      0.01000000	      0.01000000	      0.03951273	      0.01000000	      0.01000000	      0.01000000	      0.04981688	      0.01000000	      0.05605931	      0.01000000	      0.02351330	      0.01000000	      0.01000000	      0.06888038	      0.01000000	      0.01000000	      0.07096305	      0.01000000	      0.21829056	      0.01000000	      0.05622650	      0.01000000	      0.07449072	      0.01000000	      0.05475169	      0.01000000	      0.04105976	      0.01000000	      0.11224093	      0.01000000	      0.11043503	      0.01000000	      0.10918826	      0.01000000	      0.01000000	      0.09903567	      0.01000000	      0.01000000	      0.16668041	      0.01000000	      0.01000000	      0.01000000	      0.10413963	      0.01000000	      0.01000000	      0.05945184	      0.01000000	      0.06773658	      0.01000000	      0.04691365	      0.01000000	      0.05453544	      0.01000000	      0.06685871	      0.01000000	      0.05823298	      0.01000000	      0.01000000	      0.01000000	      0.01000000	      0.01000000	      0.01000000	      0.01000000	      0.01000000	      0.01000000	      0.03950493	      0.01000000	      0.01000000	      0.01000000	      0.04991243	      0.01000000	      0.05611688	      0.01000000	      0.02350965	      0.01000000	      0.01000000	      0.06887890	      0.01000000	      0.01000000	      0.07096435	      0.01000000	      0.21829500	      0.01000000	      0.05623706	      0.01000000	      0.07448461	      0.01000000	      0.05467258	      0.01000000	      0.04103896	      0.01000000	      0.11224099	      0.01000000	      0.11043507	      0.01000000	      0.10918834
      0.00545188	     20.00000000	      0.00000000	      0.00000000	      0.25000000	    -10.15925159	     -0.00406917	     -0.00318280	      0.07800915	      0.86718857	      0.00001406	     37.39292164	    -11.10070183	    -10.02887477	     44.61959451	     44.61959451	     14.66486506	     -0.46397322	      0.00000000	     37.39087995	    -11.12556308	    -10.02965085	     44.62070310	     44.62070310	     14.76610936	      0.00000000	     -0.00000000	     -0.19018336	      0.00375470	      0.00317600	     43.03435421	     -0.00165102	     89.90344741	      0.10644023	      0.09982059	     -0.00000000	      0.00000000	     43.03455294	     -0.00245929	     89.90414554	      0.10684701	      0.09990367	     -0.00000000	      0.00000000	     -0.00000000	      0.00000000	      0.00000000	     -0.00000000	     57.46828627	     -1.35095754	     -1.03786977	      0.00464284	      0.06829320	      0.00471301	    -72.73177885	      2.14049408	    -10.63700103	    -40.97161303	    -40.97161302	   -628.93630736	   -157.98275316	      0.00000000	    -73.39472482	     -6.18413362	    -10.86746233	    -40.34853603	    -40.34853603	   -595.22913465	      0.00000000	     -0.00000000	    -69.53599162	      1.23376019	      1.03990362	     12.44140212	     -0.59042418	     -0.41542835	      1.97954380	     -0.36482578	     -0.00000000	      0.00000000	     12.51325872	     -0.88340000	     -0.28165183	      2.12660247	     -0.33478486	     -0.00000000	      0.00000000	      0.01000000	      0.01000000	      0.09904993	      0.01000000	      0.01000000	      0.16661592	      0.01000000	      0.01000000	      0.01000000	      0.10410744	      0.01000000	      0.01000000	      0.05972419	      0.01000000	      0.06813320	      0.01000000	      0.04692551	      0.01000000	      0.05451890	      0.01000000	      0.06658621	      0.01000000	      0.05796869	      0.01000000	      0.01000000	      0.01000000	      0.01000000	      0.01000000	      0.01000000	      0.01000000	      0.01000000	      0.01000000	      0.03950011	      0.01000000	      0.01000000	      0.01000000	      0.04971973	      0.01000000	      0.05597194	      0.01000000	      0.02350339	      0.01000000	      0.01000000	      0.06889400	      0.01000000	      0.01000000	      0.07094700	      0.01000000	      0.21825566	      0.01000000	      0.05599662	      0.01000000	      0.07452322	      0.01000000	      0.05518422	      0.01000000	      0.04104792	      0.01000000	      0.11222214	      0.01000000	      0.11041708	      0.01000000	      0.10917113	      0.01000000	      0.01000000	      0.09907598	      0.01000000	      0.01000000	      0.16662694	      0.01000000	      0.01000000	      0.01000000	      0.10411042	      0.01000000	      0.01000000	      0.05976468	      0.01000000	      0.06808645	      0.01000000	      0.04689544	      0.01000000	      0.05448780	      0.01000000	      0.06660096	      0.01000000	      0.05799506	      0.01000000	      0.01000000	      0.01000000	      0.01000000	      0.01000000	      0.01000000	      0.01000000	      0.01000000	      0.01000000	      0.03948771	      0.01000000	      0.01000000	      0.01000000	      0.04987962	      0.01000000	      0.05607839	      0.01000000	      0.02349701	      0.01000000	      0.01000000	      0.06889173	      0.01000000	      0.01000000	      0.07094888	      0.01000000	      0.21826220	      0.01000000	      0.05601309	      0.01000000	      0.07451186	      0.01000000	      0.05506301	      0.01000000	      0.04100972	      0.01000000	      0.11222252	      0.01000000	      0.11041742	      0.01000000	      0.10917149
      0.00674385	     20.00000000	      0.00000000	      0.00000000	      0.25000000	    -10.07622585	     -0.00594680	     -0.00461472	      0.07801659	      0.86728675	      0.00002063	     37.28735161	    -11.09768394	    -10.04428414	     44.55955363	     44.55955363	     13.77569941	     -0.68561667	      0.00000000	     37.28439754	    -11.13415135	    -10.04536227	     44.56153868	     44.56153868	     13.92381747	      0.00000000	     -0.00000000	     -0.29053200	      0.00546196	      0.00461394	     43.05223883	     -0.00249855	     89.90284631	      0.10928147	      0.09932074	     -0.00000000	      0.00000000	     43.05254058	     -0.00372674	     89.90373624	      0.10989904	      0.09944688	     -0.00000000	      0.00000000	     -0.00000000	      0.00000000	      0.00000000	     -0.00000000	     71.05529520	     -1.54841799	     -1.17221774	      0.00695226	      0.08363617	      0.00543991	    -90.74662922	      2.52640133	    -13.22324605	    -52.07310129	    -52.07310129	   -745.27260761	   -184.42729649	      0.00000000	    -91.49156148	     -7.07329730	    -13.45884786	    -51.34260852	    -51.34260852	   -706.60552392	      0.00000000	     -0.00000000	    -85.79023642	      1.40179029	      1.17990726	     15.23387490	     -0.72097410	     -0.51524142	      2.41652321	     -0.40525967	     -0.00000000	      0.00000000	     15.32135226	     -1.07747904	     -0.35235926	      2.59548595	     -0.36869505	     -0.00000000	      0.00000000	      0.01000000	      0.01000000	      0.09909998	      0.01000000	      0.01000000	      0.16652267	      0.01000000	      0.01000000	      0.01000000	      0.10405615	      0.01000000	      0.01000000	      0.06018377	      0.01000000	      0.06869434	      0.01000000	      0.04691628	      0.01000000	      0.05445867	      0.01000000	      0.06616163	      0.01000000	      0.05756092	      0.01000000	      0.01000000	      0.01000000	      0.01000000	      0.01000000	      0.01000000	      0.01000000	      0.01000000	      0.01000000	      0.03947945	      0.01000000	      0.01000000	      0.01000000	      0.04956853	      0.01000000	      0.05582329	      0.01000000	      0.02348568	      0.01000000	      0.01000000	      0.06891888	      0.01000000	      0.01000000	      0.07091916	      0.01000000	      0.21820054	      0.01000000	      0.05564008	      0.01000000	      0.07458454	      0.01000000	      0.05584073	      0.01000000	      0.04102678	      0.01000000	      0.11219096	      0.01000000	      0.11038716	      0.01000000	      0.10914284	      0.01000000	      0.01000000	      0.09914054	      0.01000000	      0.01000000	      0.16653992	      0.01000000	      0.01000000	      0.01000000	      0.10406086	      0.01000000	      0.01000000	      0.06024744	      0.01000000	      0.06862206	      0.01000000	      0.04686234	      0.01000000	      0.05440119	      0.01000000	      0.06618508	      0.01000000	      0.05760400	      0.01000000	      0.01000000	      0.01000000	      0.01000000	      0.01000000	      0.01000000	      0.01000000	      0.01000000	      0.01000000	      0.03945999	      0.01000000	      0.01000000	      0.01000000	      0.04982503	      0.01000000	      0.05600963	      0.01000000	      0.02347449	      0.01000000	      0.01000000	      0.06891515	      0.01000000	      0.01000000	      0.07092201	      0.01000000	      0.21821026	      0.01000000	      0.05566541	      0.01000000	      0.07456331	      0.01000000	      0.05565690	      0.01000000	      0.04095594	      0.01000000	      0.11219182	      0.01000000	      0.11038797	      0.01000000	      0.10914363
